<?xml version="1.0"?><svg width="640" height="480" xmlns="http://www.w3.org/2000/svg">
 <title>Solid White Cloud</title>
 <metadata id="metadata3228">image/svg+xml</metadata>
 <g>
  <title>Layer 1</title>
  <g id="layer1">
   <g id="svg_2">
    <path d="m292.090332,67.696144c-37.513992,0 -69.202988,23.924004 -79.061981,56.594002c-4.105011,-2.320999 -8.826004,-3.656006 -13.875,-3.656006c-15.613007,0 -28.281006,12.667999 -28.281006,28.281006c0,0.158997 -0.003006,0.309998 0,0.468994c-4.677002,-0.959 -9.580994,-1.5 -14.656998,-1.5c-30.947006,0 -56.061996,19.018005 -56.061996,42.437012c0,23.419998 25.11499,42.437988 56.061996,42.437988c12.257996,0 23.582993,-3.005997 32.813004,-8.062988c5.511993,16.491989 21.067993,28.405991 39.405991,28.405991c12.427002,0 23.570007,-5.471008 31.188004,-14.125c7.389984,3.865997 16.080994,6.093994 25.375,6.093994c12.644012,0 24.183014,-4.113007 32.842987,-10.874985c11.670013,12.111984 28.82901,19.780991 47.969025,19.780991c23.480988,0 44.001984,-11.553009 55.030975,-28.686996c1.661011,0.242996 3.364014,0.375 5.094025,0.375c18.679993,0 33.812988,-14.690002 33.812988,-32.813004c0,-18.121994 -15.132996,-32.843002 -33.812988,-32.843002c-3.34201,0 -6.574005,0.497009 -9.625,1.375c-10.065002,-11.86499 -25.115021,-20.090988 -42.312012,-22.093994c-3.518005,-40.082001 -38.848999,-71.594002 -81.907013,-71.594002z" stroke-width="2.587" stroke-miterlimit="4" stroke-dashoffset="0" stroke="#000000" fill-rule="nonzero" fill="#ffffff" id="svg_3"/>
    <path d="m290.301331,65.915146c-34.288971,0.101997 -67.812988,23.006996 -78.467987,55.718994c-15.509003,-7.86499 -36.341995,1.233002 -41.375,17.781006c-0.824997,2.509003 -1.365997,5.139999 -1.5,7.781006c-24.333008,-4.285004 -53.110992,3.677994 -66.157013,25.875c-8.724976,14.481995 -4.483978,34.125992 7.938019,45.062988c20.144989,19.158005 53.128998,21.181992 77.280991,9.812012c7.835999,20.926987 33.259003,32.766006 54.406006,25.063004c6.735001,-2.179016 12.871002,-6.497009 17.749985,-11.313019c18.138,8.748993 41.098999,7.194 57.469025,-4.655991c26.257996,26.370987 74.153992,25.297989 98.843994,-2.656006c2.949005,-2.013992 3.790985,-7.903992 8.093994,-6.562988c19.944,1.383987 38.725006,-16.469009 37.125,-36.625c-0.652985,-20.76001 -22.113007,-36.666 -42.25,-32.406006c-4.153992,1.720993 -5.744995,-4.419998 -9.157013,-5.968994c-9.655975,-8.484009 -22.474976,-13.10701 -34.5,-15.437012c-3.664978,-36.200996 -34.97699,-65.816994 -70.582977,-70.518997c-4.921021,-0.744995 -9.927002,-1.066002 -14.917023,-0.949997z" stroke-width="2.587" stroke-miterlimit="4" stroke-dashoffset="0" stroke="#a3ced5" fill-rule="nonzero" fill="#ffffff" id="svg_4"/>
   </g>
  </g>
 </g>
</svg>